<?xml version="1.0" encoding="UTF-8" standalone="no"?>
<!-- Generator: Adobe Illustrator 13.0.3, SVG Export Plug-In . SVG Version: 6.00 Build 14948)  -->

<svg
   version="1.1"
   id="レイヤー_1"
   x="0px"
   y="0px"
   width="76px"
   height="76px"
   viewBox="0 0 76 76"
   enable-background="new 0 0 76 76"
   xml:space="preserve"
   sodipodi:docname="mine.svg"
   inkscape:version="1.2.2 (732a01da63, 2022-12-09)"
   xmlns:inkscape="http://www.inkscape.org/namespaces/inkscape"
   xmlns:sodipodi="http://sodipodi.sourceforge.net/DTD/sodipodi-0.dtd"
   xmlns:xlink="http://www.w3.org/1999/xlink"
   xmlns="http://www.w3.org/2000/svg"
   xmlns:svg="http://www.w3.org/2000/svg"><defs
   id="defs27"><linearGradient
     inkscape:collect="always"
     id="linearGradient1202"><stop
       style="stop-color:#ffffff;stop-opacity:1;"
       offset="0.33639145"
       id="stop1198" /><stop
       style="stop-color:#ffffff;stop-opacity:0;"
       offset="1"
       id="stop1200" /></linearGradient><radialGradient
     inkscape:collect="always"
     xlink:href="#linearGradient1202"
     id="radialGradient1204"
     cx="30"
     cy="30"
     fx="30"
     fy="30"
     r="5"
     gradientUnits="userSpaceOnUse"
     gradientTransform="matrix(1.7999999,0,0,1.8,-23.000001,-23.000001)" /></defs><sodipodi:namedview
   id="namedview25"
   pagecolor="#ffffff"
   bordercolor="#000000"
   borderopacity="0.25"
   inkscape:showpageshadow="2"
   inkscape:pageopacity="0.0"
   inkscape:pagecheckerboard="0"
   inkscape:deskcolor="#d1d1d1"
   showgrid="false"
   inkscape:zoom="14.657895"
   inkscape:cx="25.140036"
   inkscape:cy="37.385996"
   inkscape:window-width="2560"
   inkscape:window-height="1346"
   inkscape:window-x="-11"
   inkscape:window-y="-11"
   inkscape:window-maximized="1"
   inkscape:current-layer="レイヤー_1" />
<g
   id="rect1313_66_"
   style="stroke:none;stroke-opacity:1">
	<polygon
   fill="#B9B9B9"
   points="75.001,75.001 1,75.001 1,1 75.001,1 75.001,75.001  "
   id="polygon19"
   style="stroke:none;stroke-opacity:1" />
	<path
   fill="#757575"
   d="M75.991,0C75.996,0,76,0.004,76,0.009V75.99c0,0.006-0.004,0.01-0.009,0.01H0.009   C0.004,76,0,75.996,0,75.99V0.009C0,0.004,0.004,0,0.009,0H75.991 M74,2H2v72h72V2L74,2z"
   id="path21"
   style="stroke:none;stroke-opacity:1" />
</g>
<g
   id="g494"><circle
     style="fill:#000000;stroke-width:1.47475"
     id="path239"
     cx="38"
     cy="38"
     r="23" /><rect
     style="fill:#000000;stroke-width:0.984681"
     id="rect293"
     width="8"
     height="66"
     x="34"
     y="5"
     ry="3.9261537" /><rect
     style="fill:#000000;stroke-width:0.984681"
     id="rect295"
     width="8"
     height="66"
     x="34"
     y="-71"
     ry="3.9261537"
     transform="rotate(90)" /><rect
     style="fill:#000000;stroke-width:0.922879"
     id="rect299"
     width="7.4978838"
     height="61.85754"
     x="-57.489056"
     y="-30.92877"
     ry="3.6797307"
     transform="rotate(-135)" /><rect
     style="fill:#000000;stroke-width:0.922879"
     id="rect301"
     width="7.4978838"
     height="61.85754"
     x="-3.7489419"
     y="22.811342"
     ry="3.6797307"
     transform="rotate(-45)" /></g><circle
   style="fill:#ffffff;stroke-width:1.02593;fill-opacity:0"
   id="path355"
   cx="30.037704"
   cy="29.901255"
   r="5" /><circle
   style="fill:url(#radialGradient1204);fill-opacity:1;stroke-width:1.9259"
   id="path496"
   cx="31"
   cy="31"
   r="9" /></svg>
