<?xml version="1.0" encoding="UTF-8" standalone="no"?>
<svg
   id="emoji"
   viewBox="0 0 76 76"
   version="1.1"
   sodipodi:docname="smile.svg"
   width="76"
   height="76"
   inkscape:version="1.2.2 (732a01da63, 2022-12-09)"
   xmlns:inkscape="http://www.inkscape.org/namespaces/inkscape"
   xmlns:sodipodi="http://sodipodi.sourceforge.net/DTD/sodipodi-0.dtd"
   xmlns="http://www.w3.org/2000/svg"
   xmlns:svg="http://www.w3.org/2000/svg">
  <defs
     id="defs40" />
  <sodipodi:namedview
     id="namedview38"
     pagecolor="#ffffff"
     bordercolor="#000000"
     borderopacity="0.25"
     inkscape:showpageshadow="2"
     inkscape:pageopacity="0"
     inkscape:pagecheckerboard="0"
     inkscape:deskcolor="#d1d1d1"
     showgrid="false"
     inkscape:zoom="14.263889"
     inkscape:cx="35.964946"
     inkscape:cy="35.964946"
     inkscape:window-width="2560"
     inkscape:window-height="1346"
     inkscape:window-x="-11"
     inkscape:window-y="-11"
     inkscape:window-maximized="1"
     inkscape:current-layer="emoji" />
  <g
     id="color"
     transform="matrix(1.4557262,0,0,1.4695131,-14.468714,-14.634157)">
    <circle
       cx="36.000099"
       cy="36"
       r="22.999901"
       fill="#fcea2b"
       id="circle22" />
  </g>
  <g
     id="hair" />
  <g
     id="skin" />
  <g
     id="skin-shadow" />
  <g
     id="line"
     transform="matrix(1.4557262,0,0,1.4695131,-14.468714,-14.634157)">
    <circle
       cx="36"
       cy="36"
       r="23"
       fill="none"
       stroke="#000000"
       stroke-linecap="round"
       stroke-linejoin="round"
       stroke-width="2"
       id="circle28" />
    <path
       fill="none"
       stroke="#000000"
       stroke-linecap="round"
       stroke-linejoin="round"
       stroke-width="2"
       d="m 45.8149,44.9293 c -2.8995,1.6362 -6.2482,2.5699 -9.8149,2.5699 -3.5667,0 -6.9153,-0.9336 -9.8149,-2.5699"
       id="path30" />
    <path
       d="m 30,31 c 0,1.6568 -1.3448,3 -3,3 -1.6553,0 -3,-1.3433 -3,-3 0,-1.6552 1.3447,-3 3,-3 1.6552,0 3,1.3448 3,3"
       id="path32" />
    <path
       d="m 48,31 c 0,1.6568 -1.3447,3 -3,3 -1.6553,0 -3,-1.3433 -3,-3 0,-1.6552 1.3447,-3 3,-3 1.6553,0 3,1.3448 3,3"
       id="path34" />
  </g>
</svg>
